<svg width="72" height="20" viewBox="0 0 72 20" fill="none" xmlns="http://www.w3.org/2000/svg">
<path d="M62.4304 0C63.7277 0 64.9675 0.263774 66.1498 0.791321C67.3322 1.31887 68.3503 2.02936 69.2042 2.92278C70.0582 3.8077 70.7355 4.86705 71.2364 6.10083C71.7455 7.33461 72 8.62795 72 9.98085C72 11.8358 71.5771 13.529 70.7314 15.0606C69.8857 16.5922 68.728 17.8005 67.2583 18.6854C65.7886 19.5618 64.1628 20 62.3811 20C61.0345 20 59.7537 19.7405 58.5385 19.2214C57.3315 18.7024 56.2928 18.0004 55.4225 17.1155C54.5522 16.2221 53.8584 15.1585 53.3411 13.9247C52.832 12.6824 52.5775 11.3763 52.5775 10.0064C52.5775 8.61944 52.832 7.30908 53.3411 6.0753C53.8501 4.83301 54.5399 3.76941 55.4102 2.88449C56.2805 1.99957 57.3233 1.2976 58.5385 0.778558C59.7619 0.259519 61.0592 0 62.4304 0ZM62.2087 3.44608C60.5091 3.44608 59.0558 4.08424 57.8488 5.36056C56.65 6.62838 56.0506 8.16847 56.0506 9.98085C56.0506 10.8913 56.2148 11.7507 56.5433 12.559C56.8717 13.3674 57.3151 14.0651 57.8734 14.6522C58.4317 15.2308 59.1009 15.6903 59.8809 16.0306C60.661 16.371 61.4861 16.5412 62.3565 16.5412C64.1218 16.5412 65.5874 15.9243 66.7533 14.6905C67.9275 13.4567 68.5145 11.9038 68.5145 10.0319C68.5145 8.13444 67.9152 6.56456 66.7164 5.32227C65.5258 4.07147 64.0233 3.44608 62.2087 3.44608Z" fill="#111111"/>
<path d="M38.6356 13.1461C38.6356 13.1461 38.6356 12.0315 38.6356 9.80217C38.6356 9.80217 42.7 9.80217 50.8286 9.80217C50.8286 9.80217 50.8286 9.95958 50.8286 10.2744C50.8286 11.5167 50.5946 12.7207 50.1266 13.8864C49.6668 15.0436 49.0058 16.0859 48.1437 17.0134C46.2716 19.0045 43.9192 20 41.0865 20C39.6743 20 38.34 19.7405 37.0838 19.2214C35.8358 18.7024 34.7602 18.0004 33.857 17.1155C32.962 16.2221 32.2518 15.1542 31.7263 13.9119C31.209 12.6696 30.9504 11.3508 30.9504 9.95533C30.9504 8.58541 31.2049 7.28781 31.714 6.06254C32.2313 4.82876 32.9251 3.76941 33.7954 2.88449C34.6657 1.99957 35.7044 1.2976 36.9114 0.778558C38.1266 0.259519 39.4074 0 40.754 0C42.0924 0 43.3855 0.255265 44.6336 0.765794C45.8816 1.27632 46.9654 1.99107 47.885 2.91002C48.8128 3.82897 49.4738 4.86279 49.8679 6.01149H45.8036C45.2289 5.17762 44.5022 4.54371 43.6237 4.10976C42.7451 3.6673 41.7639 3.44608 40.6801 3.44608C39.7851 3.44608 38.9435 3.612 38.1553 3.94384C37.3753 4.26718 36.7143 4.73091 36.1724 5.33503C35.6387 5.92214 35.2118 6.64114 34.8915 7.49202C34.5795 8.3344 34.4235 9.17252 34.4235 10.0064C34.4235 11.8613 35.0434 13.4142 36.2833 14.665C37.5231 15.9158 39.0585 16.5412 40.8895 16.5412C42.1211 16.5412 43.2131 16.2434 44.1656 15.6477C45.118 15.0521 45.8488 14.2183 46.3578 13.1461H38.6356Z" fill="#111111"/>
<path d="M19.5703 0C20.8676 0 22.1074 0.263774 23.2898 0.791321C24.4721 1.31887 25.4903 2.02936 26.3442 2.92278C27.1981 3.8077 27.8755 4.86705 28.3763 6.10083C28.8854 7.33461 29.1399 8.62795 29.1399 9.98085C29.1399 11.8358 28.7171 13.529 27.8714 15.0606C27.0257 16.5922 25.868 17.8005 24.3982 18.6854C22.9285 19.5618 21.3028 20 19.521 20C18.1745 20 16.8936 19.7405 15.6784 19.2214C14.4714 18.7024 13.4328 18.0004 12.5624 17.1155C11.6921 16.2221 10.9983 15.1585 10.481 13.9247C9.97196 12.6824 9.71742 11.3763 9.71742 10.0064C9.71742 8.61944 9.97196 7.30908 10.481 6.0753C10.9901 4.83301 11.6798 3.76941 12.5501 2.88449C13.4205 1.99957 14.4632 1.2976 15.6784 0.778558C16.9018 0.259519 18.1991 0 19.5703 0ZM19.3486 3.44608C17.649 3.44608 16.1957 4.08424 14.9887 5.36056C13.79 6.62838 13.1906 8.16847 13.1906 9.98085C13.1906 10.8913 13.3548 11.7507 13.6832 12.559C14.0116 13.3674 14.455 14.0651 15.0134 14.6522C15.5717 15.2308 16.2409 15.6903 17.0209 16.0306C17.8009 16.371 18.6261 16.5412 19.4964 16.5412C21.2617 16.5412 22.7273 15.9243 23.8933 14.6905C25.0674 13.4567 25.6545 11.9038 25.6545 10.0319C25.6545 8.13444 25.0551 6.56456 23.8563 5.32227C22.6658 4.07147 21.1632 3.44608 19.3486 3.44608Z" fill="#111111"/>
<path d="M0 19.6554C0 19.6554 0 13.2185 0 0.344604C0 0.344604 1.15361 0.344604 3.46083 0.344604C3.46083 0.344604 3.46083 5.64135 3.46083 16.2348C3.46083 16.2348 5.36162 16.2348 9.16319 16.2348C9.16319 16.2348 9.16319 17.375 9.16319 19.6554C9.16319 19.6554 6.10879 19.6554 0 19.6554Z" fill="#111111"/>
</svg>
